<?xml version="1.0" encoding="UTF-8" standalone="no"?>
<!-- Created with Inkscape (http://www.inkscape.org/) -->

<svg
   xmlns:dc="http://purl.org/dc/elements/1.1/"
   xmlns:cc="http://creativecommons.org/ns#"
   xmlns:rdf="http://www.w3.org/1999/02/22-rdf-syntax-ns#"
   xmlns:svg="http://www.w3.org/2000/svg"
   xmlns="http://www.w3.org/2000/svg"
   xmlns:sodipodi="http://sodipodi.sourceforge.net/DTD/sodipodi-0.dtd"
   xmlns:inkscape="http://www.inkscape.org/namespaces/inkscape"
   width="119.3397mm"
   height="119.3397mm"
   viewBox="0 0 422.85717 422.85717"
   id="svg2"
   version="1.1"
   inkscape:version="0.91 r"
   sodipodi:docname="edit.svg">
  <defs
     id="defs4" />
  <sodipodi:namedview
     id="base"
     pagecolor="#ffffff"
     bordercolor="#666666"
     borderopacity="1.0"
     inkscape:pageopacity="0.0"
     inkscape:pageshadow="2"
     inkscape:zoom="0.7"
     inkscape:cx="176.83903"
     inkscape:cy="127.84838"
     inkscape:document-units="px"
     inkscape:current-layer="layer1"
     showgrid="false"
     inkscape:window-width="1366"
     inkscape:window-height="744"
     inkscape:window-x="0"
     inkscape:window-y="24"
     inkscape:window-maximized="1"
     fit-margin-top="0"
     fit-margin-left="0"
     fit-margin-right="0"
     fit-margin-bottom="0"
     showguides="false" />
  <metadata
     id="metadata7">
    <rdf:RDF>
      <cc:Work
         rdf:about="">
        <dc:format>image/svg+xml</dc:format>
        <dc:type
           rdf:resource="http://purl.org/dc/dcmitype/StillImage" />
        <dc:title></dc:title>
      </cc:Work>
    </rdf:RDF>
  </metadata>
  <g
     inkscape:label="Layer 1"
     inkscape:groupmode="layer"
     id="layer1"
     transform="translate(-171.42903,-255.21831)">
    <circle
       style="opacity:1;fill:#000000;fill-opacity:1;stroke:none;stroke-width:60;stroke-linecap:round;stroke-miterlimit:4;stroke-dasharray:none;stroke-opacity:1"
       id="path4135"
       cx="382.8576"
       cy="466.64688"
       r="211.42857" />
    <path
       style="fill:#ffffff;fill-opacity:1"
       d="m 304.05901,620.76188 c 0,-2.24003 5.59231,-113.45033 5.93076,-117.94072 0.12177,-1.61605 7.55776,-13.72731 44.76785,-72.9152 24.54198,-39.0375 47.75633,-75.99168 51.58742,-82.12044 9.59497,-15.34939 12.97683,-18.6343 22.46921,-21.825 3.20244,-1.07645 5.02589,-1.3455 10.49426,-1.54843 11.85956,-0.44011 22.61112,2.18056 35.43372,8.63687 13.26193,6.67752 25.49159,16.57981 33.15301,26.84385 10.36857,13.89077 13.11431,28.55042 7.41274,39.57691 -0.78239,1.5131 -24.42853,39.33938 -52.547,84.05838 -51.12444,81.30731 -51.12444,81.30731 -104.5812,110.49762 -29.40122,16.05465 -53.60616,29.1903 -53.78877,29.1903 -0.18259,0 -0.332,-1.10436 -0.332,-2.45414 z m 63.83776,-50.89119 c 16.18423,-8.82194 29.60686,-16.20844 29.82807,-16.41448 0.22124,-0.20604 -1.00378,-2.19939 -2.72222,-4.42968 -10.50554,-13.63462 -15.84524,-26.79526 -15.84755,-39.05921 -9.7e-4,-4.08405 -0.0243,-4.09669 -4.17964,-2.24262 -11.82514,5.27626 -26.44556,5.97118 -43.69744,2.07693 -2.48318,-0.56052 -4.60042,-0.93358 -4.70498,-0.82903 -0.1046,0.1046 -0.96733,15.20728 -1.91729,33.56159 -1.80887,34.94978 -1.81523,34.14338 0.26939,34.16372 1.6728,0.0163 5.7063,1.52167 7.80883,2.91432 1.22461,0.81115 2.95891,2.55449 3.85397,3.87409 0.89506,1.3196 1.68489,2.40489 1.75518,2.41175 0.0703,0.007 13.36944,-7.20545 29.55368,-16.02738 z m 68.68563,-75.68883 c 33.78815,-53.69655 33.78815,-53.69655 33.4907,-56.88191 -0.74971,-8.02845 -9.17857,-20.02581 -19.89962,-28.32454 -3.48539,-2.69788 -4.43125,-3.22124 -4.9027,-2.71267 -0.32129,0.34656 -14.1298,22.24412 -30.68558,48.66122 -30.10145,48.03111 -30.10145,48.03111 -30.10145,52.86667 0,13.26303 3.7645,23.14604 14.20946,37.30434 2.32409,3.15034 3.07257,3.87032 3.52575,3.39141 0.31642,-0.3344 15.77997,-24.77144 34.36344,-54.30452 z m -71.47811,11.39095 c 4.24724,-1.13318 7.6299,-2.42547 11.50568,-4.39555 2.78667,-1.41647 2.78667,-1.41647 33.18819,-49.83757 16.72085,-26.63163 30.40131,-48.61701 30.40105,-48.8564 -9.7e-4,-0.66517 -7.02656,-4.31108 -12.03519,-6.24543 -7.51136,-2.90089 -14.00967,-4.25556 -20.42491,-4.25789 -4.22455,-10e-4 -6.20483,0.21966 -8.19068,0.91487 -2.6191,0.91688 -2.6191,0.91688 -36.94211,55.6522 -18.87765,30.10446 -34.32299,54.86559 -34.32299,55.02474 0,0.15917 3.32478,0.89103 7.38841,1.62635 4.06364,0.73532 7.71546,1.41571 8.11515,1.51198 0.39971,0.0963 4.54207,0.0978 9.20526,0.003 6.52719,-0.13197 9.31477,-0.39455 12.11214,-1.1409 z M 480.94242,423.7257 c 0.42494,-0.7311 2.20358,-3.67622 3.95254,-6.54473 3.72361,-6.10711 4.25184,-8.31879 3.07967,-12.89425 -1.77645,-6.93417 -6.30197,-13.81959 -13.7757,-20.95923 -7.79566,-7.44717 -16.37064,-13.00656 -25.942,-16.81891 -7.26983,-2.89561 -11.85454,-3.98867 -18.00425,-4.29249 -8.15303,-0.40277 -13.26331,1.07691 -16.09861,4.66131 -1.42556,1.80219 -7.86844,11.9486 -7.86844,12.3914 0,0.13782 1.76442,0.25058 3.92092,0.25058 10.94555,0 27.23975,5.785 40.16736,14.26077 11.86404,7.77848 21.82869,17.92884 27.18917,27.69587 1.08216,1.9718 2.11139,3.5837 2.28716,3.58201 0.17576,-10e-4 0.66725,-0.60124 1.09218,-1.33233 z m 20.48166,-34.15322 c 1.93504,-7.22054 -4.7716,-19.78758 -15.63352,-29.29444 -18.60615,-16.285 -44.96881,-24.15315 -56.00732,-16.71581 -1.93795,1.30572 -1.93795,1.30572 1.2112,1.68706 14.17723,1.71684 25.63237,5.64144 37.76304,12.93787 12.66876,7.62008 25.20747,19.93113 30.37769,29.82614 0.7607,1.45582 1.52116,2.64748 1.68994,2.64811 0.16876,4.8e-4 0.43831,-0.48939 0.59897,-1.08893 z"
       id="path4190"
       inkscape:connector-curvature="0" />
  </g>
</svg>
