<?xml version="1.0" encoding="UTF-8" standalone="no"?>
<!-- Created with Inkscape (http://www.inkscape.org/) -->

<svg
   xmlns:dc="http://purl.org/dc/elements/1.1/"
   xmlns:cc="http://creativecommons.org/ns#"
   xmlns:rdf="http://www.w3.org/1999/02/22-rdf-syntax-ns#"
   xmlns:svg="http://www.w3.org/2000/svg"
   xmlns="http://www.w3.org/2000/svg"
   xmlns:sodipodi="http://sodipodi.sourceforge.net/DTD/sodipodi-0.dtd"
   xmlns:inkscape="http://www.inkscape.org/namespaces/inkscape"
   width="118.53307mm"
   height="118.53291mm"
   viewBox="0 0 419.99905 419.99848"
   id="svg2"
   version="1.1"
   inkscape:version="0.91 r"
   sodipodi:docname="red_cross.svg">
  <defs
     id="defs4" />
  <sodipodi:namedview
     id="base"
     pagecolor="#ffffff"
     bordercolor="#666666"
     borderopacity="1.0"
     inkscape:pageopacity="0.0"
     inkscape:pageshadow="2"
     inkscape:zoom="0.7"
     inkscape:cx="-193.57327"
     inkscape:cy="126.05861"
     inkscape:document-units="px"
     inkscape:current-layer="layer1"
     showgrid="false"
     inkscape:window-width="1366"
     inkscape:window-height="744"
     inkscape:window-x="0"
     inkscape:window-y="24"
     inkscape:window-maximized="1"
     fit-margin-top="0"
     fit-margin-left="0"
     fit-margin-right="0"
     fit-margin-bottom="0" />
  <metadata
     id="metadata7">
    <rdf:RDF>
      <cc:Work
         rdf:about="">
        <dc:format>image/svg+xml</dc:format>
        <dc:type
           rdf:resource="http://purl.org/dc/dcmitype/StillImage" />
        <dc:title />
      </cc:Work>
    </rdf:RDF>
  </metadata>
  <g
     inkscape:label="Layer 1"
     inkscape:groupmode="layer"
     id="layer1"
     transform="translate(-170.00047,-255.21979)">
    <path
       style="opacity:1;fill:#b70000;fill-opacity:1;stroke:none;stroke-width:3;stroke-linecap:round;stroke-miterlimit:4;stroke-dasharray:none;stroke-opacity:1"
       d="m 383.06641,255.24219 a 210,210 0 0 0 -151.5586,61.48437 210,210 0 0 0 0,296.98438 210,210 0 0 0 296.98438,0 210,210 0 0 0 0,-296.98438 210,210 0 0 0 -145.42578,-61.48437 z m -0.35547,24.2832 a 185.71428,185.71428 0 0 1 128.60937,54.375 185.71428,185.71428 0 0 1 0,262.63867 185.71428,185.71428 0 0 1 -262.64062,0 185.71428,185.71428 0 0 1 0,-262.63867 185.71428,185.71428 0 0 1 134.03125,-54.375 z"
       id="path4155"
       inkscape:connector-curvature="0" />
    <path
       style="fill:none;fill-rule:evenodd;stroke:#b70000;stroke-width:24.99999702;stroke-linecap:butt;stroke-linejoin:miter;stroke-miterlimit:4;stroke-dasharray:none;stroke-opacity:1"
       d="M 520.41121,324.80816 239.5888,605.63056"
       id="path4172"
       inkscape:connector-curvature="0" />
    <path
       style="fill:#ffffff;fill-opacity:1;fill-rule:evenodd;stroke:#b70000;stroke-width:25;stroke-linecap:butt;stroke-linejoin:miter;stroke-miterlimit:4;stroke-dasharray:none;stroke-opacity:1"
       d="M 521.14984,604.88802 238.85016,325.5507"
       id="path4172-8"
       inkscape:connector-curvature="0" />
  </g>
</svg>
